<svg xmlns="http://www.w3.org/2000/svg" width="960" height="411.271" viewBox="0 0 960 411.271" xmlns:xlink="http://www.w3.org/1999/xlink" role="img" artist="Katerina Limpitsouni" source="https://undraw.co/"><g transform="translate(-483.572 -368.978)"><path d="M970.645,558.806a68.968,68.968,0,0,1-18.968,22.763c-1.121.9-2.268,1.765-3.431,2.614q-2.35,1.649-4.816,3.241c-12.774,8.106-27.734,13.649-42.339,17.69q-5.971,1.649-11.982,3.1-5.072,1.229-10.151,2.293c-1.287.28-2.573.544-3.86.825s-2.763.552-4.124.825l-1.955.371c-37.787,6.969-76.066,8.3-114.631,6.549l-1.831-.091-2.928-.148q-11.743-.611-23.512-1.559l-2.971-.248-1.31-.107q-6.6-.552-13.2-1.209-8.692-.825-17.41-1.823l-.751-.083-.611-.074h0c-20.74-2.333-41.531-5.138-62.346-8.016l-2.944-.412-5.286-.734-4.453-.619h0l-1.32-.181q-10.54-1.476-21.079-2.922L591.3,600.7c-13.2-1.807-26.464-3.546-39.7-5.129l-1.724-.2h0q-8.123-.965-16.238-1.839l-4.124-.437-5.484-.552c-15.2-1.511-30.389-2.713-45.547-3.464q-10.935-.544-21.92-.825-9.067-.2-18.143-.239-12.3-.057-24.659.14h-1.864c-11.6.189-23.232.52-34.867.916l-2.095.065h-.693c-24.74.874-49.481,2.037-74.152,2.87l-6.029.2h-.875q-12.865.412-25.705.635h-5.1l-3.828.049q-5.962.057-11.9.065h-4.857c-14.531-.041-29-.363-43.387-1.113l-1.6-.091A549.12,549.12,0,0,1,114.1,581.458q-4.214-.883-8.412-1.847a386.262,386.262,0,0,1-55.089-16.75c-8.445-3.3-16.939-7.109-23.363-13.558-16.284-16.5-10.17-48.8,11.033-58.2,16.584-7.348,36.014-1.369,53.852-4.684a27.515,27.515,0,0,0,3.241-.825,45.031,45.031,0,0,0,6.6-2.72c.725-.363,1.452-.751,2.185-1.155a55.65,55.65,0,0,0,4.882-2.985,74.954,74.954,0,0,0,7.422-5.633q1.567-1.336,3.052-2.771a58.362,58.362,0,0,0,9.006-10.78,38.094,38.094,0,0,0,2.474-4.652A24.563,24.563,0,0,0,132,452.331a23.963,23.963,0,0,0,.981-3.81c1.039-6.12-.643-12.09-6.5-17.136a17.283,17.283,0,0,0-1.649-1.245,25.209,25.209,0,0,0-3.579-2.07c-.5-.239-1.023-.471-1.551-.693-7.538-3.175-17.26-4.4-25.458-6.6h0a44.955,44.955,0,0,1-7.29-2.532c-1.493-.693-2.977-1.419-4.433-2.177h0l-.388-.215h0a99.284,99.284,0,0,1-32.162-26.39,85.979,85.979,0,0,1-5.988-8.693c-.552-.907-1.089-1.839-1.6-2.771-14.49-26.143,3.237-19.915,18.312-45.617a80.755,80.755,0,0,1,6.1-8.956q1.088-1.41,2.252-2.771c14.35-16.926,34.966-28.4,55.782-36.9,27.94-11.4,57.192-18.6,87-23.339q9.067-1.443,18.143-2.589c25.317-3.233,50.352-11.87,75.787-13.169q35.685-1.806,71.681-2.333,12.2-.165,24.419-.14,27.536,0,55.073,1.064,9.067.347,18.143.825,23.264,1.209,46.438,3.3,11.133,1.008,22.217,2.216c56.277,6.152,93.094-16.222,146.645,0q9.113,2.754,18.143,5.773A700.668,700.668,0,0,1,774.82,280.99q3.068,1.377,6.118,2.771,20.279,9.3,39.981,20.049a444.625,444.625,0,0,1,49.972,31.333q9.335,6.845,18.143,14.283a260.945,260.945,0,0,1,28.955,28.566q1.188,1.377,2.35,2.771,6.037,7.254,11.463,15.018c17.648,25.368,29.49,54.38,38.232,84.019C977.742,505.664,982.875,534.7,970.645,558.806Z" transform="translate(465.605 143.172)" fill="#fafafa"/><path d="M335.811,507.2l.091.272h-.611l-.091-.272Z" transform="translate(424.801 232.829)" fill="#3a3768"/><path d="M439.4,679.55Z" transform="translate(391.722 60.743)" fill="#3a3768"/><path d="M466.984,545.5v.355s-7.191,19.652-9.533,36.426q-.239,1.649-.4,3.3c-.116,1.163-.2,2.3-.256,3.406-.065,1.295-.083,2.548-.049,3.744v.824c0,.552.057,1.121.091,1.707s.083,1.171.132,1.781.1,1.147.157,1.732c1.773,18.143,8.51,44.707,8.51,44.707s.223.717.512,1.938h-1.86c-11.6.189-23.232.52-34.867.916l-2.095.066h-.693c-24.74.874-49.481,2.037-74.152,2.87l-6.029.2h-.875q-12.865.412-25.705.635H317.6a13.891,13.891,0,0,1,2-2.252,14.5,14.5,0,0,1,2.02-1.567,45.471,45.471,0,0,1,12.659-5.435,10.094,10.094,0,0,1,2.895-.355l5.773.116h.891l8.857.173,75.965,1.511h.189l.536-.107a14.233,14.233,0,0,0,2.565-.907,9.005,9.005,0,0,0,5.41-6.993c0-.256.065-.528.083-.825a9.721,9.721,0,0,0,0-1.209,4.1,4.1,0,0,0-.065-.883c-.065-.3-.083-.611-.14-.924-1.831-10.234-4.948-41.738-4.948-41.738v.1s0-1.344.075-3.6v-1.039c0-.5.057-1.048.091-1.649,0-.355.049-.717.075-1.1.041-.552.091-1.121.14-1.713a.481.481,0,0,1,0-.107q.049-.561.1-1.138v-.124c1.229-12.164,5.1-31.421,17.318-38.554,5.732-3.356,9.525-4.03,12.023-3.373,3.645.956,4.561,4.75,4.758,7.216v.479a12.051,12.051,0,0,1,.116,1.393Z" transform="translate(413.075 85.878)" fill="#090814"/><path d="M335.811,507.2l.091.272h-.611l-.091-.272Z" transform="translate(424.801 232.829)" opacity="0.1"/><path d="M439.4,679.55Z" transform="translate(391.722 60.743)" opacity="0.1"/><path d="M335.811,507.2l.091.272h-.611l-.091-.272Z" transform="translate(424.801 232.829)" fill="#3a3768"/><path d="M439.4,679.55Z" transform="translate(391.722 60.743)" fill="#3a3768"/><path d="M134.846,633.517l-.3,3.076-1.8,18.877q-4.214-.883-8.412-1.847l2.1-17.162.705-5.83Z" transform="translate(446.956 69.319)" fill="#eaecf0"/><path d="M55.12,434.379l44.914-95.589,180.909,14.115,16.675,81.479Z" transform="translate(473.904 262.354)" fill="#d6d6e3"/><path d="M55.12,463.037V454.7h242.5v12.191Z" transform="translate(473.904 242.034)" fill="#d6d6e3"/><path d="M155.613,599.856l108.5,2.208a1.5,1.5,0,0,0,1.46-1.971l-16.914-45.621-73.077-1.392-21.615,44.249a1.8,1.8,0,0,0,1.649,2.519Z" transform="translate(441.789 82.916)" fill="#dfe6f5"/><path d="M155.613,599.856l108.5,2.208a1.5,1.5,0,0,0,1.46-1.971l-16.914-45.621-73.077-1.392-21.615,44.249a1.8,1.8,0,0,0,1.649,2.519Z" transform="translate(441.789 82.916)" fill="#d6d6e3" opacity="0.15"/><path d="M154.94,597.559l109.616,2.309-14.9-45.139a3.72,3.72,0,0,0-3.456-2.556l-70.444-1.333Z" transform="translate(441.592 83.308)" fill="#e6e6e6"/><path d="M165.854,588.52l13.137-28.905a3.505,3.505,0,0,1,3.184-2.045h32.649a3.488,3.488,0,0,1,3.488,3.488V592.29a3.5,3.5,0,0,1-3.661,3.488l-45.795-2.333a3.488,3.488,0,0,1-3-4.924Z" transform="translate(439.733 82.129)" fill="#4c4c56"/><path d="M88.166,459.931l36.377-3.035a2.475,2.475,0,0,1,2.589,1.46l34.4,77.858-19.2,43.1c.6-1.352,1.048,9.168-3.3.049L84.365,465.312C83.63,463.789,86.459,460.144,88.166,459.931Z" transform="translate(453.986 99.782)" fill="#4c4c56"/><path d="M88.531,459.537l38.224-4.882a2.475,2.475,0,0,1,2.589,1.46l34.406,77.858-20.815,46.719L86.578,463.076a2.474,2.474,0,0,1,1.955-3.538Z" transform="translate(453.62 100.175)" fill="#4c4c56"/><path d="M100.121,466.3l27.636-4.305a2.474,2.474,0,0,1,2.68,1.517l28.946,70.808a2.243,2.243,0,0,1-.049,1.813l-13.253,27.693a2.235,2.235,0,0,1-4.049,0L98.249,469.811a2.474,2.474,0,0,1,1.872-3.513Z" transform="translate(451.572 98.89)" fill="#73121b"/><path d="M439.4,679.55Z" transform="translate(391.722 60.743)" fill="#fff"/><path d="M230.419,556.44s-4.28,6.738-16.4,3.637-28.163,8.626-23.586,14.415,34.093-1.649,34.093-1.649l14.847-6.085-2.146-6.682Z" transform="translate(435.509 82.327)" fill="#ed9da0"/><path d="M78.232,59.122l-6.815,6.809L54.446,69.706,9.571,71.587A16.882,16.882,0,0,0,0,52.858S18.994,51.08,23.851,51.21s14.282-3.366,14.687-4.445,4.718,0,4.718,0l3.778-1.485c3.768-1.451,5.928-3.5,5.928-4.949s3.365-3.1,3.365-3.1c2.831-4.789,10.731-10.265,15.225-13.125A155.624,155.624,0,0,1,74.791,8.388,14.371,14.371,0,0,1,81.784,0c3.052,2.975-.658,42.617-.658,42.617l7.142,32.071-5.44,3.637S80.333,67.026,78.232,59.122Z" transform="translate(664.617 585.231)" fill="#444052"/><path d="M237.764,586.025l-6.347-.124-7.422-.157s-35.049,2.7-34.365-8.51,27.644-15.141,31.4-11.925c2.845,2.433,9.426,4.4,12.428,5.2.957.256,4.65.679,4.65.679Z" transform="translate(435.512 80.963)" fill="#ed9da0"/><path d="M29.477,62.353c.261-2.939.162-6.587-1.172-9.269a7.141,7.141,0,0,0-1.688-2.34q-.614.03-1.233.03a25.374,25.374,0,1,1,22.08-12.846c3.682,2.46,7.758,5.2,10.615,7.038,6.219,3.92-16.2,17.386-16.2,17.386L28.31,69.18a41.912,41.912,0,0,0,1.167-6.827Z" transform="translate(716.393 525.325)" fill="#ed9da0"/><path d="M346.131,372.5H314.719s-3.257-29.469-.2-43.192a43.389,43.389,0,0,1,3.136-9.012,44.1,44.1,0,0,0,9.28-2.687c7.409-3.123,19.2-10.868,19.2-10.868Z" transform="translate(428.657 267.971)" fill="#73121b"/><path d="M282.769,679.24h.38l-.705.272Z" transform="translate(419.239 60.797)" fill="#67647e"/><path d="M333.863,649.263l-6.146,2.359-.825.3-22.118,8.5-8.437,3.241-11.48,4.415h-4.684c-14.531-.041-29-.363-43.387-1.113,2.788-6.111,7.657-15.891,11.637-19.05,3.1-2.474,25.288-5.146,45.761-7.153,2.557-.248,5.08-.487,7.538-.705l.585-.057c8.132-.742,15.487-1.344,20.617-1.756l.825-.066,6.448-.495.676-.676.825,3.526.684,2.821Z" transform="translate(427.242 68.204)" fill="#e6e6e6"/><path d="M282.769,679.24h.38l-.705.272Z" transform="translate(419.239 60.797)" opacity="0.1"/><path d="M282.769,679.24h.38l-.705.272Z" transform="translate(419.239 60.797)" fill="#67647e"/><path d="M335.905,507.472h-.611l-.091-.272h.611Z" transform="translate(424.801 232.829)" fill="#67647e"/><path d="M348.339,641.4l-.512,16.972v1.007l-.256,8.4-6.029.2h-.875q-12.865.412-25.705.635h-5.1l-3.828.049q-5.962.057-11.9.065H289.4c4.288-2.656,9.838-5.584,15.81-8.51,2.68-1.32,5.46-2.631,8.246-3.929,7.422-3.447,14.935-6.7,21.063-9.3l.784-.329c2.375-1.007,4.528-1.905,6.366-2.664,3.975-1.649,6.5-2.639,6.672-2.705Z" transform="translate(418.019 67.451)" fill="#e6e6e6"/><path d="M335.811,507.2l.091.272h-.611l-.091-.272Z" transform="translate(424.801 232.829)" opacity="0.1"/><path d="M439.4,679.55Z" transform="translate(391.722 60.743)" opacity="0.1"/><path d="M86.395,157.371v-.091l-.274-.923-1.707-5.774-1.651-5.607-1.648-5.6-.652-2.244L77.642,127.5l-3.728-12.694,1.032-10.318.139-1.378v-.026a7.637,7.637,0,0,1-4.142-.31s-66.711-2.293-67.537-2.427C-3.373,99.217,2.061,81.2,2.061,81.2s20.45-1.612,24.657-2.821,9.974,2.829,9.974,2.829,5.531-3.635,17.388-4.246,16.971-6.432,16.971-6.432,3.311-3.371,6.506-6.935v-.041L78.1,52.525l1.6-4.769.683-2.055,1.6-4.824.339-1.023s1.541-5.418,3.036-10.788c.057-.2.113-.395.163-.592.132-.461.256-.926.388-1.378s.256-.914.371-1.369c.419-1.5.825-2.9,1.108-4.058.4-1.511.678-2.6.734-2.96A48.571,48.571,0,0,1,91.883,12C95.784,5.547,102.52.622,102.562.42c.076-.6,3.446-.384,3.446-.384.963,1.858,3.593,1.713,5.876,3.082A43.422,43.422,0,0,0,116.008,5.3c9.5,5.729,15.854,11.7,20.15,17.265a7.339,7.339,0,0,1,2.285,3.2c7,10.654,6.78,19.2,7.872,20.548,1.748,2.161,1.888,9.974,1.888,9.974s9.408,61.69,13.722,65.194,11.762,34.387,11.762,34.387l-.364.628c-.289.511-.75,1.318-1.3,2.334l-.056.115c-.629,1.163-1.368,2.571-2.1,4.123h-.7c-24.74.874-49.482,2.037-74.152,2.869l-6.028.2Z" transform="translate(670.572 569.279)" fill="#444052"/><g transform="translate(987.828 500.674)"><path d="M0,17.255V10.579L4.882.973V1.1L8.313,0l.063,89.432a4.744,4.744,0,0,0-3.089.743L4.9,5.094l.375,85.077c-.024-.028-3.511.49-5.275.772ZM5.275,90.171Z" transform="translate(350.911 162.99)" fill="#e6e6e6"/><path d="M757,695.27Z" transform="translate(-651.787 -442.687)" fill="#d3dae1"/><path d="M0,17.255V10.579L4.882.973V76.5Q2.532,78.345.066,80.13ZM4.882,1.1,8.313,0V73.955C7.192,74.963,6.046,75.941,4.887,76.9Z" transform="translate(421.133 149.79)" fill="#e6e6e6"/><path d="M5.484,86.717v.08L0,86.141,1.417,0H8.781V4.9l.784,82.337Z" transform="translate(1.715 148.747)" fill="#e6e6e6"/><path d="M0,17.4V0L349.421,24.936v.388L426.3,2.317V25.323L349.421,41.307h0Z" transform="translate(3.14 131.539)" fill="#d6d6e3"/><path d="M611.46,372.242l100.381-19.1L1040.9,374.689,964.023,397.7Z" transform="translate(-611.46 -240.836)" fill="#e6e6e6"/><path d="M1027.357,382.35l22.514,1.468-37.3,11.166-19-1.369Z" transform="translate(-678.449 -245.958)" fill="#fff"/><path d="M845.824,367.36l50.2,3.282-10.7,15.372-55.2-5.9Z" transform="translate(-649.796 -243.329)" fill="#3a3768"/><path d="M848.932,368.73l43.783,2.68-9.327,12.519-48.137-4.808Z" transform="translate(-650.693 -243.569)" fill="#d5e1f4"/><path d="M757,695.27Z" transform="translate(-651.787 -442.687)" fill="#3a3768"/><path d="M757,695.27Z" transform="translate(-651.787 -442.687)" opacity="0.1"/><path d="M756.54,695.27Z" transform="translate(-651.707 -442.687)" fill="#3a3768"/><path d="M804.018,668.515a4,4,0,0,1-.041.705,4.739,4.739,0,0,1-.065.619,13.928,13.928,0,0,1-1.2,4.2h0c-20.741-2.334-41.531-5.138-62.346-8.016l-2.944-.412-5.286-.734-4.453-.619h0a107.246,107.246,0,0,1-14.547-1.361,75.274,75.274,0,0,1-8.989-1.9c-13.2-1.806-26.464-3.546-39.7-5.129l-1.724-.2c.313-1.4.577-2.252.577-2.252s2.837-11.15,5.2-23.611c.52-2.705,1.015-5.46,1.443-8.189.347-2.185.66-4.346.924-6.424.148-1.147.272-2.268.379-3.365.057-.544.107-1.088.148-1.649s.091-1.171.132-1.74.057-1.072.083-1.592v-.775c0-1.108,0-2.276-.041-3.472a102.25,102.25,0,0,0-2.8-17.656c-.231-.989-.471-1.979-.717-2.944-.074-.313-.157-.619-.239-.924-2.664-10.317-5.773-18.746-5.773-18.746a.94.94,0,0,1,0-.14.459.459,0,0,0,0-.1,1.948,1.948,0,0,0,0-.2v-1.468a12.631,12.631,0,0,1,.445-2.556q.135-.444.313-.875a5.44,5.44,0,0,1,3.711-3.431h0c2.334-.6,5.864,0,11.191,3.159a19.262,19.262,0,0,1,2.474,1.7,10.446,10.446,0,0,1,1.155,1c6.1,5.682,9.352,15.059,11.082,23.619.066.3.124.611.181.916.2,1.056.38,2.086.536,3.1.28,1.781.5,3.5.668,5.088,0,.429.091.825.132,1.261s.083.825.107,1.22c.107,1.287.181,2.474.231,3.48.14,2.672.116,4.313.116,4.313v.083a2.248,2.248,0,0,1-.041.355.151.151,0,0,0,0,.066v.742q-.049.52-.124,1.209c-.074.705-.157,1.542-.256,2.474-.066.693-.148,1.443-.231,2.235-.181,1.649-.379,3.563-.593,5.575-.049.38-.091.759-.132,1.138-.189,1.724-.388,3.526-.593,5.34h0c-.223,2.061-.471,4.124-.705,6.161-.057.445-.116.891-.165,1.328-.611,4.948-1.22,9.442-1.713,12.238a11.608,11.608,0,0,0-.165,1.253,3.858,3.858,0,0,0,0,.429,8.434,8.434,0,0,0,0,1.121c.4,7.042,8.016,8.246,8.016,8.246l34.562-.684,5.129-.1,2.985-.057,26.942-.536h0l2.474-.049,13.4-.264a9.574,9.574,0,0,1,2.7.321,42.82,42.82,0,0,1,11.71,5.121,13.771,13.771,0,0,1,3.022,2.639.879.879,0,0,1,.116.132,14.268,14.268,0,0,1,3.241,7.719v.569A7.443,7.443,0,0,1,804.018,668.515Z" transform="translate(-635.139 -417.804)" fill="#090814"/><path d="M756.54,695.27Z" transform="translate(-651.707 -442.687)" opacity="0.1"/><path d="M756.54,695.27Z" transform="translate(-651.707 -442.687)" fill="#3a3768"/><path d="M880.5,421.48v75.45a5.6,5.6,0,0,0,5.6,5.6h125.765a5.566,5.566,0,0,0,5.566-5.674l-1.423-75.515a5.566,5.566,0,0,0-5.566-5.46H886.1a5.6,5.6,0,0,0-5.6,5.6Z" transform="translate(-673.438 -393.704)" fill="#4c4c56"/><path d="M875,421.48v75.45a5.6,5.6,0,0,0,5.6,5.6h125.765a5.558,5.558,0,0,0,5.558-5.674L1010.5,421.34a5.566,5.566,0,0,0-5.558-5.46h-124.3a5.6,5.6,0,0,0-5.633,5.6Z" transform="translate(-672.474 -393.704)" fill="#4c4c56"/><path d="M881,427.2v66.428a5.6,5.6,0,0,0,5.6,5.6h116.454a5.566,5.566,0,0,0,5.566-5.566v-66.5a5.566,5.566,0,0,0-5.566-5.558H886.6a5.6,5.6,0,0,0-5.6,5.6Z" transform="translate(-673.526 -394.708)" fill="#73121b"/><path d="M924.14,346.768l11.059,21.3h24.986L947.692,343.7Z" transform="translate(-666.278 -239.181)" fill="#4c4c56"/><path d="M913.068,373.25l-1.848,2.26h38.307v-2.26Z" transform="translate(-655.617 -244.361)" fill="#4c4c56"/><path d="M20.519,65.679C14.556,62.727,5.354,57.81,1.635,53.891-.015,52.12-.6,50.553.76,49.457a10.743,10.743,0,0,0,.907-.825,26.5,26.5,0,0,0,2.877-3.414c1.187-1.65,2.357-3.489,3.463-5.377.5-.846.978-1.7,1.435-2.533-.1-.154-.208-.309-.307-.465A23.918,23.918,0,1,1,31.115,47.774c-.087.19-.172.382-.253.585-3.646,8.246-4.882,19.914-4.882,19.914S23.717,67.26,20.519,65.679Z" transform="translate(80.718 12.377)" fill="#ed9da0"/><path d="M913.322,728H913.3Z" transform="translate(-678.824 -448.426)" fill="#efb7b9"/><path d="M913.322,728H913.3Z" transform="translate(-678.824 -448.426)" opacity="0.05"/><path d="M894.523,690.128q-11.743-.611-23.512-1.559l-2.969-.239-1.31-.107c-3.694-8.915-5.821-15.007-5.821-15.007a100.679,100.679,0,0,1-1.452-11.507c-.19-5.625-.4-11.888-.4-11.888l-.552.091-.231.041h-.3l-1.328.223-.725.116c-1.31.215-2.895.453-4.445.676l-.347.049-.907.116-.825.1h0c-.635.083-1.237.148-1.781.2l-.668.057a5.773,5.773,0,0,1-1.823,0c-1.3-.5,1.4-13.2,1.4-13.2l8.61-20.823.3-.083c.453-.116,1.411-.339,2.705-.561.487-.083,1.023-.165,1.6-.239,7.472-.956,21.689-.684,24.32,14.6,3.6,20.923,4.124,25.623,4.124,25.623l4.808,22.745S893.617,684.248,894.523,690.128Z" transform="translate(-667.175 -428.836)" fill="#ed9da0"/><path d="M831.339,610.34v6.9s-.705,10.721-6.21,27.132c-.14.429-13.41,19.883-17.583,23.1-.611.471-1.179.883-1.649,1.229h-.047c-.825.561-1.419.965-1.8,1.209s-.412.256-.412.256c-3.909-2.4-15.018-2.8-15.018-2.8l-25.928,4.709a162.784,162.784,0,0,1-20.072,2.087c-1.7.065-19.458-.52-24.271-1.3a72.7,72.7,0,0,1-7.851-1.74,55.281,55.281,0,0,1-5.435-1.814c-18.143-7.125-13.418-24.023-10.358-31.333.165-.388.321-.742.47-1.072.676-1.493,1.18-2.367,1.18-2.367l1.209-2.912h0l1.971-4.775.437-1.048.124-.3,1.46-3.538,20.617-2.672c32.474-4.24,51.716-5.328,51.716-5.328s9.806-3,18.415-2a102.439,102.439,0,0,0,12.8.083h0l1.056-.049,1.369-.057h.3C818.964,611.4,831.339,610.34,831.339,610.34Z" transform="translate(-640.355 -427.798)" fill="#444053"/><path d="M809.8,537.111s19.973-.9,21.952-1.6,19.5-3.1,19.5-3.1,51.915,3.9,37.128,8.61-34.859,2.7-34.859,2.7-19.6,5.41-22.612,8.246-25.253,2.9-25.253,2.9Z" transform="translate(-660.319 -414.136)" fill="#ed9da0"/><path d="M810.064,537.111s21.219-.9,23.323-1.6,20.716-3.1,20.716-3.1,49.569,3.929,33.862,8.642-31.454,2.665-31.454,2.665-20.823,5.41-24.023,8.246-26.828,2.9-26.828,2.9Z" transform="translate(-660.319 -414.136)" opacity="0.051"/><path d="M716.794,479.392s-19.422,6.6-10.011,23.421,21.524,24.74,21.524,24.74l31.232,21.623s13.113,7.5,19.116,4.4l9.806-.825,4.017-25.143s-10.615,5.821-19.588-3.061-20.023-14.919-20.922-19.718S728.1,475.286,716.794,479.392Z" transform="translate(-642.532 -404.761)" fill="#d6d6e3"/><path d="M.127,141.686c-.705-1.5,1.741-19.958,1.741-19.958s7.71-42.741,8.308-44.747-2.2-16.019-3.81-20.221C5,53.173,5.389,37.232,5.541,32.663c0-.777.041-1.22.041-1.22s1.4-4.512,5.106-13.518C13.5,11.1,24.21.845,27.1,0c.5-.145,18.41,4.192,26.739,11.978A174.214,174.214,0,0,1,65.776,25.023c9.646,12.9,8.375,17.127,8.375,17.127s.825,1.88,4.692,9.386c2.07,3.991,2.448,8.757,2.087,12.88a7.833,7.833,0,0,1-.111,1.059c.1.057.215.115.321.17a12.291,12.291,0,0,0,12.717-.774l-1.6,25.715-9.812.826a5.038,5.038,0,0,1-.668.288c-2.922,1.071-7.134.119-10.8-1.2v.013l-.2,1.108-1.343,7.9-.6,9.112s-3.3,4.6-4.7,6.6-1.209,4.908-.705,7.009-4.6,2.4-4.6,2.4a155.935,155.935,0,0,1-40.746,9.2c-13.242,3.766-16.526,8.111-17.6,8.111C.32,141.956.213,141.872.127,141.686Z" transform="translate(54.478 63.421)" fill="#d6d6e3"/><path d="M889.354,548.3c-14.8,4.7-34.859,2.705-34.859,2.705s-19.6,5.4-22.611,8.246c-1.94,1.806-11.853,2.474-18.63,2.746-3.765.148-6.582.157-6.582.157l2.436-17.263,4.091-.6c5.364-.264,18.008-.94,19.561-1.493,1.98-.705,19.5-3.1,19.5-3.1S904.141,543.591,889.354,548.3Z" transform="translate(-660.495 -415.411)" fill="#ed9da0"/><path d="M780,407.33a4.192,4.192,0,0,1-1.377,1.691c-1.88,1.22-4.577-.124-6.54.965-1.575.865-2.02,2.922-3.3,4.214-1.468,1.525-3.777,1.757-5.888,2.02s-4.445.784-5.566,2.589c-.825,1.344-.742,3.023-1.048,4.585a1.394,1.394,0,0,1-.321.759,1.511,1.511,0,0,1-1.008.329c-4.124.289-7.125-1.138-10.982-2.128-1.807-.461-3.917-.4-5.3.825s-1.6,2.985-1.575,4.676a36.132,36.132,0,0,1,.157,5.08,8.246,8.246,0,0,1-7.422,6.936,2.028,2.028,0,0,1-1.525-.388,2.185,2.185,0,0,1-.5-.907c-2.746-7.719-2.72-16.287-6.053-23.777a26.869,26.869,0,0,1-1.393-3.3c-.065-.231-.132-.471-.181-.705a10.861,10.861,0,0,1-.2-1.443,2.062,2.062,0,0,0-.94.388,1.735,1.735,0,0,0-.264.28,4.89,4.89,0,0,0-.692,2.614,98.963,98.963,0,0,0,2.969,30.653,32.048,32.048,0,0,1,1.427,7.694,20.559,20.559,0,0,1-1.98,8.161c-5.171,11.925-15.562,20.654-25.893,28.55a11.486,11.486,0,0,0,3.068-8.519,3.364,3.364,0,0,1-2.614,2.342,10.075,10.075,0,0,1-3.686-.057c1.584-.52,2.2-2.384,2.6-4q1.209-4.948,2.252-9.987a62.881,62.881,0,0,0,1.452-9.748c.124-2.788-.091-5.583-.2-8.378a169.578,169.578,0,0,1,.824-22.971c.61-6.6,1.713-13.731,6.557-18.236a28.483,28.483,0,0,1,6.927-4.321c0-.825,6.045-2.474,6.845-2.589a6.49,6.49,0,0,1,1.007-.116,2.069,2.069,0,0,1,2.152,1.129c.3-.536.627-1.064.973-1.567a18.259,18.259,0,0,1,1.567-1.971c3.142-3.464,7.216-5.9,10.853-8.841a27.914,27.914,0,0,1,4.321-3.184,15.556,15.556,0,0,1,6.474-1.649,26.268,26.268,0,0,1,10.927,1.713c5.014,1.929,9.393,5.393,14.581,6.8a34.679,34.679,0,0,1,3.785,1.048,9.168,9.168,0,0,1,4.784,12.717Z" transform="translate(-643.578 -384.99)" fill="#444053"/><path d="M729.071,404c-.742,3.414-1.765,7.851-2.532,10.135a12.366,12.366,0,0,1-.2-1.443,2.037,2.037,0,0,0-.932.388c0-2.4.288-5.97.536-8.642a2.078,2.078,0,0,1,2.161,1.129A14.333,14.333,0,0,1,729.071,404Z" transform="translate(-646.249 -391.623)" opacity="0.1"/><path d="M728.59,404c-.742,3.414-1.765,7.851-2.532,10.135a10.851,10.851,0,0,1-.2-1.443,2.061,2.061,0,0,0-.94.388c0-2.4.288-5.97.544-8.642a2.069,2.069,0,0,1,2.152,1.129C727.913,405.039,728.285,404.511,728.59,404Z" transform="translate(-649.461 -388.325)" fill="#73121b"/></g><path d="M219.573,37.648l-3.545,4.3-6.413-11.218s-8.186.422-8.186-5.654-11.29-5.908-11.29-5.908-9.332-6.979-5.541-10.478,9.4-6.036,20.71-3.526c0,0,12.67-8.68,20.777-3.394a9.94,9.94,0,0,1,2.088,1.876s23.286,11.721,16.618,32.139l-3.811,12.246s-2.459,5.618-7.813,3.022-.439-18.978-13.6-13.408Z" transform="translate(532.699 514.04)" fill="#090814"/><path d="M255.858,211.929A20.713,20.713,0,0,0,230.5,186.566a20.713,20.713,0,0,0-34.646,9.284,20.713,20.713,0,0,0-9.283,34.646,20.713,20.713,0,0,0,25.363,25.363,20.713,20.713,0,0,0,34.646-9.283,20.713,20.713,0,0,0,9.283-34.646Zm-8.689-16.672a15.976,15.976,0,0,1,4.543,13.461l-17.243-9.956a2.349,2.349,0,0,0-2.349,0l-20.19,11.656v-7.643a1.512,1.512,0,0,1,.752-1.306l15.374-8.876a16.011,16.011,0,0,1,19.114,2.664Zm-25.956,15.236,9.284,5.36v10.72l-9.284,5.36-9.284-5.36v-10.72Zm-21.364-9.516a16.007,16.007,0,0,1,25.793-12.425L208.4,198.507a2.349,2.349,0,0,0-1.174,2.034v23.313l-6.619-3.822a1.513,1.513,0,0,1-.755-1.3V200.976Zm-14.092,10.735a15.976,15.976,0,0,1,9.386-10.665v19.911a2.349,2.349,0,0,0,1.175,2.034l20.19,11.656-6.62,3.822a1.512,1.512,0,0,1-1.507,0L193.005,229.6A16.011,16.011,0,0,1,185.755,211.712Zm9.5,35.457a15.977,15.977,0,0,1-4.543-13.461l17.243,9.956a2.35,2.35,0,0,0,2.349,0l20.19-11.656v7.643a1.512,1.512,0,0,1-.752,1.306l-15.374,8.876a16.011,16.011,0,0,1-19.114-2.664Zm47.32-5.721a16.007,16.007,0,0,1-25.793,12.425l17.244-9.955a2.348,2.348,0,0,0,1.175-2.034V218.57l6.62,3.822a1.513,1.513,0,0,1,.755,1.3v17.752Zm14.092-10.735a15.976,15.976,0,0,1-9.386,10.665V221.467a2.349,2.349,0,0,0-1.174-2.034l-20.19-11.656,6.62-3.822a1.512,1.512,0,0,1,1.507,0l15.374,8.876A16.011,16.011,0,0,1,256.669,230.713Z" transform="translate(1027.893 188.478)"/><path d="M15.959,54.147,32,45.19l.244-.814L32,43.969h-.814L28.5,43.806l-9.12-.244-7.98-.407-7.735-.407L1.71,42.341,0,39.9l.163-1.221,1.628-1.059,2.361.163,5.13.407,7.735.489L22.636,39l8.305.977h1.3l.163-.57L32,39.084l-.326-.326-8.061-5.374-8.631-5.7-4.56-3.338L7.98,22.717,6.758,21.089l-.489-3.42,2.2-2.443,3.013.244.733.163,3.013,2.361,6.514,4.967,8.387,6.351,1.221.977.489-.326.081-.244-.57-.9L26.87,20.356l-4.885-8.468-2.2-3.5-.57-2.117a8.4,8.4,0,0,1-.326-2.443L21.333.407,22.8,0l3.42.489,1.3,1.14,2.117,4.885,3.338,7.572,5.293,10.259L39.9,27.44l.814,2.768.244.814h.57v-.407l.407-5.863.814-7.084.814-9.12.244-2.606,1.3-3.094,2.443-1.628,2.117.9L51.3,4.478l-.244,1.466-.9,6.27L48.04,22.066l-1.221,6.677h.733l.814-.9,3.338-4.4,5.618-7,2.443-2.85L62.7,10.585,64.569,9.12h3.5l2.524,3.827-1.14,3.99L65.872,21.5,62.86,25.323,58.544,31.1l-2.606,4.641.244.326h.57l9.771-2.117,5.211-.9L77.923,32l2.85,1.3.326,1.3-1.14,2.768L73.282,39l-7.817,1.628L53.821,43.318l-.163.081.163.244,5.211.489,2.28.163h5.537l10.259.814L79.8,46.738l1.547,2.2L81.1,50.564l-4.153,2.117-5.537-1.3L58.381,48.285l-4.4-1.059h-.651v.326l3.746,3.664,6.758,6.107,8.631,7.9.407,1.954L71.816,68.8l-1.14-.163-7.491-5.7L60.254,60.5,53.74,54.961h-.407v.57l1.466,2.2L62.778,69.7l.407,3.664-.57,1.14-2.117.814-2.2-.489-4.723-6.514-4.885-7.328L44.865,54.31l-.407.326L42.1,79.226l-1.059,1.221-2.443.977L36.559,79.8l-1.14-2.443,1.14-5.048,1.3-6.514,1.059-5.211.977-6.433.57-2.117v-.163H39.9l-4.885,6.758L27.684,68.641l-5.863,6.188-1.384.57-2.443-1.221.244-2.28,1.3-1.873L27.684,59.6,32.57,53.17l3.257-3.746-.081-.407H35.5l-21.5,14-3.827.489L8.55,61.882l.163-2.443.814-.814,6.514-4.478Z" transform="translate(649.332 368.978)" fill="#d97757"/></g></svg>